# xmcd
# 
# Track frame offsets:
#     150
#     18067
#     33235
# 
# Disc length: 708
# 
# Revision: 10
# Processed by: cddbd v1.5.2PL0 Copyright (c) Steve Scherf et al.
# Submitted via: fre:ac v1.0.17
# 
DISCID=1302c203
DTITLE=周杰倫 - 范特西-EP
DYEAR=2001
DGENRE=Pop
TTITLE0=蝸牛
TTITLE1=你比從前快樂
TTITLE2=世界末日
EXTD=
EXTT0=
EXTT1=
EXTT2=
PLAYORDER=
